<svg id="Layer_1" data-name="Layer 1" xmlns="http://www.w3.org/2000/svg" viewBox="0 0 1818.78 769.92"><defs><style>.cls-1,.cls-11,.cls-6{fill:#fff;}.cls-2{fill:#ffb42a;}.cls-3{fill:#f2f2f2;}.cls-4{fill:#42210b;}.cls-5,.cls-6,.cls-8,.cls-9{stroke:#231f20;stroke-linecap:round;}.cls-10,.cls-12,.cls-5,.cls-6,.cls-8,.cls-9{stroke-miterlimit:10;}.cls-7,.cls-8{fill:#e6e7e8;}.cls-12,.cls-9{fill:none;}.cls-9{stroke-width:4px;}.cls-10,.cls-12{stroke:#000;}.cls-11{opacity:0.6;}</style></defs><title>logo</title><path class="cls-1" d="M373.89,348.5H300.11A10.11,10.11,0,0,1,290,338.39V320.5h94v17.89A10.11,10.11,0,0,1,373.89,348.5Z" transform="translate(-26.72 -58.58)"/><rect class="cls-1" x="81.05" y="30.89" width="65.34" height="172.33" rx="16.43" ry="16.43" transform="translate(-65.02 117.83) rotate(-67.16)"/><path class="cls-1" d="M680,226.5l-90.09-15.88c-20.94,0-37.91-20-37.91-44.69h0c0-23.08,15.87-41.78,35.45-41.78L680,106.5Z" transform="translate(-26.72 -58.58)"/><rect class="cls-2" x="77.28" y="2.92" width="466" height="251" rx="47.87" ry="47.87"/><path class="cls-3" d="M522.13,62.5A46.92,46.92,0,0,1,569,109.37V264.63a46.92,46.92,0,0,1-46.87,46.87H151.87A46.92,46.92,0,0,1,105,264.63V109.37A46.92,46.92,0,0,1,151.87,62.5H522.13m0-2H151.87A48.87,48.87,0,0,0,103,109.37V264.63a48.87,48.87,0,0,0,48.87,48.87H522.13A48.87,48.87,0,0,0,571,264.63V109.37A48.87,48.87,0,0,0,522.13,60.5Z" transform="translate(-26.72 -58.58)"/><rect class="cls-4" x="95.78" y="113.42" width="428" height="109"/><path d="M550,172.5v108H123v-108H550m1-1H122v110H551v-110Z" transform="translate(-26.72 -58.58)"/><rect class="cls-1" x="135.78" y="142.42" width="64" height="51"/><path d="M226,201.5v50H163v-50h63m1-1H162v52h65v-52Z" transform="translate(-26.72 -58.58)"/><rect class="cls-1" x="227.78" y="142.42" width="64" height="51"/><path d="M318,201.5v50H255v-50h63m1-1H254v52h65v-52Z" transform="translate(-26.72 -58.58)"/><rect class="cls-1" x="320.78" y="142.42" width="64" height="51"/><path d="M411,201.5v50H348v-50h63m1-1H347v52h65v-52Z" transform="translate(-26.72 -58.58)"/><rect class="cls-1" x="412.78" y="142.42" width="64" height="51"/><path d="M503,201.5v50H440v-50h63m1-1H439v52h65v-52Z" transform="translate(-26.72 -58.58)"/><rect class="cls-1" x="135.78" y="117.42" width="11" height="6"/><path d="M173,176.5v5H163v-5h10m1-1H162v7h12v-7Z" transform="translate(-26.72 -58.58)"/><rect class="cls-1" x="116.78" y="117.42" width="11" height="6"/><path d="M154,176.5v5H144v-5h10m1-1H143v7h12v-7Z" transform="translate(-26.72 -58.58)"/><rect class="cls-1" x="174.78" y="117.42" width="11" height="6"/><path d="M212,176.5v5H202v-5h10m1-1H201v7h12v-7Z" transform="translate(-26.72 -58.58)"/><rect class="cls-1" x="155.78" y="117.42" width="11" height="6"/><path d="M193,176.5v5H183v-5h10m1-1H182v7h12v-7Z" transform="translate(-26.72 -58.58)"/><rect class="cls-1" x="209.78" y="117.42" width="11" height="6"/><path d="M247,176.5v5H237v-5h10m1-1H236v7h12v-7Z" transform="translate(-26.72 -58.58)"/><rect class="cls-1" x="190.78" y="117.42" width="11" height="6"/><path d="M228,176.5v5H218v-5h10m1-1H217v7h12v-7Z" transform="translate(-26.72 -58.58)"/><rect class="cls-1" x="248.78" y="117.42" width="11" height="6"/><path d="M286,176.5v5H276v-5h10m1-1H275v7h12v-7Z" transform="translate(-26.72 -58.58)"/><rect class="cls-1" x="229.78" y="117.42" width="11" height="6"/><path d="M267,176.5v5H257v-5h10m1-1H256v7h12v-7Z" transform="translate(-26.72 -58.58)"/><rect class="cls-1" x="284.78" y="117.42" width="11" height="6"/><path d="M322,176.5v5H312v-5h10m1-1H311v7h12v-7Z" transform="translate(-26.72 -58.58)"/><rect class="cls-1" x="265.78" y="117.42" width="11" height="6"/><path d="M303,176.5v5H293v-5h10m1-1H292v7h12v-7Z" transform="translate(-26.72 -58.58)"/><rect class="cls-1" x="323.78" y="117.42" width="11" height="6"/><path d="M361,176.5v5H351v-5h10m1-1H350v7h12v-7Z" transform="translate(-26.72 -58.58)"/><rect class="cls-1" x="304.78" y="117.42" width="11" height="6"/><path d="M342,176.5v5H332v-5h10m1-1H331v7h12v-7Z" transform="translate(-26.72 -58.58)"/><rect class="cls-1" x="358.78" y="117.42" width="11" height="6"/><path d="M396,176.5v5H386v-5h10m1-1H385v7h12v-7Z" transform="translate(-26.72 -58.58)"/><rect class="cls-1" x="339.78" y="117.42" width="11" height="6"/><path d="M377,176.5v5H367v-5h10m1-1H366v7h12v-7Z" transform="translate(-26.72 -58.58)"/><rect class="cls-1" x="397.78" y="117.42" width="11" height="6"/><path d="M435,176.5v5H425v-5h10m1-1H424v7h12v-7Z" transform="translate(-26.72 -58.58)"/><rect class="cls-1" x="378.78" y="117.42" width="11" height="6"/><path d="M416,176.5v5H406v-5h10m1-1H405v7h12v-7Z" transform="translate(-26.72 -58.58)"/><rect class="cls-1" x="418.78" y="117.42" width="11" height="6"/><path d="M456,176.5v5H446v-5h10m1-1H445v7h12v-7Z" transform="translate(-26.72 -58.58)"/><rect class="cls-1" x="453.78" y="117.42" width="11" height="6"/><path d="M491,176.5v5H481v-5h10m1-1H480v7h12v-7Z" transform="translate(-26.72 -58.58)"/><rect class="cls-1" x="434.78" y="117.42" width="11" height="6"/><path d="M472,176.5v5H462v-5h10m1-1H461v7h12v-7Z" transform="translate(-26.72 -58.58)"/><rect class="cls-1" x="492.78" y="117.42" width="11" height="6"/><path d="M530,176.5v5H520v-5h10m1-1H519v7h12v-7Z" transform="translate(-26.72 -58.58)"/><rect class="cls-1" x="473.78" y="117.42" width="11" height="6"/><path d="M511,176.5v5H501v-5h10m1-1H500v7h12v-7Z" transform="translate(-26.72 -58.58)"/><rect class="cls-1" x="134.78" y="212.42" width="11" height="6"/><path d="M172,271.5v5H162v-5h10m1-1H161v7h12v-7Z" transform="translate(-26.72 -58.58)"/><rect class="cls-1" x="115.78" y="212.42" width="11" height="6"/><path d="M153,271.5v5H143v-5h10m1-1H142v7h12v-7Z" transform="translate(-26.72 -58.58)"/><rect class="cls-1" x="173.78" y="212.42" width="11" height="6"/><path d="M211,271.5v5H201v-5h10m1-1H200v7h12v-7Z" transform="translate(-26.72 -58.58)"/><rect class="cls-1" x="154.78" y="212.42" width="11" height="6"/><path d="M192,271.5v5H182v-5h10m1-1H181v7h12v-7Z" transform="translate(-26.72 -58.58)"/><rect class="cls-1" x="208.78" y="212.42" width="11" height="6"/><path d="M246,271.5v5H236v-5h10m1-1H235v7h12v-7Z" transform="translate(-26.72 -58.58)"/><rect class="cls-1" x="189.78" y="212.42" width="11" height="6"/><path d="M227,271.5v5H217v-5h10m1-1H216v7h12v-7Z" transform="translate(-26.72 -58.58)"/><rect class="cls-1" x="247.78" y="212.42" width="11" height="6"/><path d="M285,271.5v5H275v-5h10m1-1H274v7h12v-7Z" transform="translate(-26.72 -58.58)"/><rect class="cls-1" x="228.78" y="212.42" width="11" height="6"/><path d="M266,271.5v5H256v-5h10m1-1H255v7h12v-7Z" transform="translate(-26.72 -58.58)"/><rect class="cls-1" x="283.78" y="212.42" width="11" height="6"/><path d="M321,271.5v5H311v-5h10m1-1H310v7h12v-7Z" transform="translate(-26.72 -58.58)"/><rect class="cls-1" x="264.78" y="212.42" width="11" height="6"/><path d="M302,271.5v5H292v-5h10m1-1H291v7h12v-7Z" transform="translate(-26.72 -58.58)"/><rect class="cls-1" x="322.78" y="212.42" width="11" height="6"/><path d="M360,271.5v5H350v-5h10m1-1H349v7h12v-7Z" transform="translate(-26.72 -58.58)"/><rect class="cls-1" x="303.78" y="212.42" width="11" height="6"/><path d="M341,271.5v5H331v-5h10m1-1H330v7h12v-7Z" transform="translate(-26.72 -58.58)"/><rect class="cls-1" x="357.78" y="212.42" width="11" height="6"/><path d="M395,271.5v5H385v-5h10m1-1H384v7h12v-7Z" transform="translate(-26.72 -58.58)"/><rect class="cls-1" x="338.78" y="212.42" width="11" height="6"/><path d="M376,271.5v5H366v-5h10m1-1H365v7h12v-7Z" transform="translate(-26.72 -58.58)"/><rect class="cls-1" x="396.78" y="212.42" width="11" height="6"/><path d="M434,271.5v5H424v-5h10m1-1H423v7h12v-7Z" transform="translate(-26.72 -58.58)"/><rect class="cls-1" x="377.78" y="212.42" width="11" height="6"/><path d="M415,271.5v5H405v-5h10m1-1H404v7h12v-7Z" transform="translate(-26.72 -58.58)"/><rect class="cls-1" x="417.78" y="212.42" width="11" height="6"/><path d="M455,271.5v5H445v-5h10m1-1H444v7h12v-7Z" transform="translate(-26.72 -58.58)"/><rect class="cls-1" x="452.78" y="212.42" width="11" height="6"/><path d="M490,271.5v5H480v-5h10m1-1H479v7h12v-7Z" transform="translate(-26.72 -58.58)"/><rect class="cls-1" x="433.78" y="212.42" width="11" height="6"/><path d="M471,271.5v5H461v-5h10m1-1H460v7h12v-7Z" transform="translate(-26.72 -58.58)"/><rect class="cls-1" x="491.78" y="212.42" width="11" height="6"/><path d="M529,271.5v5H519v-5h10m1-1H518v7h12v-7Z" transform="translate(-26.72 -58.58)"/><rect class="cls-1" x="472.78" y="212.42" width="11" height="6"/><path d="M510,271.5v5H500v-5h10m1-1H499v7h12v-7Z" transform="translate(-26.72 -58.58)"/><rect class="cls-5" x="124.74" y="48.38" width="112.99" height="112.99" rx="56.49" ry="56.49"/><rect class="cls-6" x="131.78" y="55.42" width="99" height="99" rx="48" ry="48"/><ellipse class="cls-7" cx="182" cy="168.5" rx="16.5" ry="12.5" transform="matrix(0.99, -0.15, 0.15, 0.99, -49.29, -30.33)"/><circle class="cls-8" cx="181.78" cy="105.42" r="6"/><ellipse class="cls-7" cx="232" cy="176.5" rx="12.5" ry="16.5" transform="translate(-73.67 202.55) rotate(-54.14)"/><ellipse class="cls-7" cx="194" cy="139.5" rx="12.5" ry="16.5" transform="translate(-66.12 29.72) rotate(-23.35)"/><ellipse class="cls-7" cx="204" cy="191.5" rx="16.5" ry="12.5" transform="translate(-70.81 262.29) rotate(-70.73)"/><ellipse class="cls-7" cx="225" cy="143.5" rx="16.5" ry="12.5" transform="translate(-64.72 130.15) rotate(-42.29)"/><rect class="cls-5" x="356.74" y="48.38" width="112.99" height="112.99" rx="56.49" ry="56.49"/><rect class="cls-6" x="363.78" y="55.42" width="99" height="99" rx="48" ry="48"/><ellipse class="cls-7" cx="414" cy="168.5" rx="16.5" ry="12.5" transform="matrix(0.99, -0.15, 0.15, 0.99, -46.82, 3.41)"/><circle class="cls-8" cx="413.78" cy="105.42" r="6"/><ellipse class="cls-7" cx="464" cy="176.5" rx="12.5" ry="16.5" transform="translate(22.43 390.58) rotate(-54.14)"/><ellipse class="cls-7" cx="426" cy="139.5" rx="12.5" ry="16.5" transform="translate(-47.12 121.66) rotate(-23.35)"/><ellipse class="cls-7" cx="436" cy="191.5" rx="16.5" ry="12.5" transform="translate(84.62 481.29) rotate(-70.73)"/><ellipse class="cls-7" cx="457" cy="143.5" rx="16.5" ry="12.5" transform="translate(-4.35 286.25) rotate(-42.29)"/><line class="cls-9" x1="175.28" y1="51.92" x2="425.28" y2="50.92"/><polygon class="cls-1" points="541.28 769.92 518.12 769.92 301.12 575.1 318.44 569.92 541.28 769.92"/><polygon class="cls-1" points="81.28 769.92 104.44 769.92 321.44 575.1 304.12 569.92 81.28 769.92"/><rect class="cls-1" x="302.5" y="374.42" width="17.56" height="381"/><rect class="cls-1" x="297.28" y="296.92" width="28" height="199"/><polygon points="614.78 156.81 614.78 60.41 641.78 55.51 641.78 161.32 614.78 156.81"/><path d="M668,114.7V219.32L642,215V119.41l26-4.71m1-1.2-28,5.07v97.24l28,4.69v-107Z" transform="translate(-26.72 -58.58)"/><path d="M38.83,118.26a2.22,2.22,0,0,1-1.18-2.9l22-52.21a2.14,2.14,0,0,1,2-1.31,2.2,2.2,0,0,1,.83.17l2.92,1.23L41.68,119.46Z" transform="translate(-26.72 -58.58)"/><path d="M61.61,62.34h0a1.69,1.69,0,0,1,.63.13l2.46,1-23.29,55.3-2.38-1a1.72,1.72,0,0,1-.92-2.25l22-52.2a1.64,1.64,0,0,1,1.51-1m0-1A2.63,2.63,0,0,0,59.18,63l-22,52.2a2.72,2.72,0,0,0,1.45,3.56l3.31,1.4L66,63l-3.38-1.43a2.62,2.62,0,0,0-1-.21Z" transform="translate(-26.72 -58.58)"/><path class="cls-10" d="M1208,378.5" transform="translate(-26.72 -58.58)"/><path class="cls-10" d="M670.73,133.72" transform="translate(-26.72 -58.58)"/><polygon class="cls-11" points="1059.78 363.42 711.78 168.42 711.78 58.42 1818.78 364.42 1059.78 363.42"/><line class="cls-12" x1="807.78" y1="108.42" x2="1599.78" y2="341.42"/><line class="cls-12" x1="808.78" y1="172.42" x2="1116.78" y2="335.42"/><line class="cls-12" x1="860.78" y1="156.42" x2="1318.78" y2="339.42"/></svg>